<?xml version="1.0" encoding="utf-8"?>
<!-- Generator: Adobe Illustrator 20.1.0, SVG Export Plug-In . SVG Version: 6.00 Build 0)  -->
<svg version="1.1" id="Capa_1" xmlns="http://www.w3.org/2000/svg" xmlns:xlink="http://www.w3.org/1999/xlink" x="0px" y="0px"
	 viewBox="0 0 512 512" style="enable-background:new 0 0 512 512;" xml:space="preserve">
<style type="text/css">
	.st0{fill:none;stroke:#000000;stroke-width:16;stroke-miterlimit:10;}
</style>
<path d="M256,0C133.5,0,34.1,99.3,34.1,221.9c0,173.9,209,284.5,217.9,289.2c2.5,1.3,5.4,1.3,7.9,0c8.9-4.6,217.9-115.3,217.9-289.2
	C477.9,99.3,378.5,0,256,0z M256,493.7c-28.8-16.1-204.8-121-204.8-271.9C51.3,108.8,142.9,17.2,256,17.1
	c113.1,0.1,204.7,91.7,204.8,204.8C460.8,372.7,284.8,477.6,256,493.7z"/>
<circle class="st0" cx="256.5" cy="218.1" r="176"/>
<g>
	<g>
		<path d="M373.6,221v-24.8c0-4.3-3.5-7.8-7.8-7.8c-16.1,0-31.1,1.4-45.3,4.1c-8.3-8-18.4-13.8-29.3-17c11.9-10,19.5-25,19.5-41.8
			c0-30.4-24.5-55.1-54.6-55.1s-54.6,24.7-54.6,55.1c0,16.8,7.6,31.8,19.5,41.8c-10.9,3.2-21,9-29.3,17c-14.2-2.8-29.2-4.1-45.3-4.1
			c-4.3,0-7.8,3.5-7.8,7.8V221c-9.1,3.2-15.6,11.9-15.6,22.1v15.6c0,10.2,6.5,18.8,15.6,22.1v24.8c0,4.3,3.5,7.8,7.8,7.8
			c40.8,0,74.3,9.7,105.4,30.4c2.6,1.7,6,1.7,8.7,0c31.1-20.8,64.6-30.4,105.4-30.4c4.3,0,7.8-3.5,7.8-7.8v-24.8
			c9.1-3.2,15.6-11.9,15.6-22.1V243C389.2,232.9,382.6,224.2,373.6,221z M217,133.8c0-21.8,17.5-39.5,39-39.5s39,17.7,39,39.5
			c0,21.5-17.5,39-39,39S217,155.3,217,133.8z M146.2,266.5c-4.3,0-7.8-3.5-7.8-7.8V243c0-4.3,3.5-7.8,7.8-7.8
			c4.3,0,7.8,3.5,7.8,7.8v15.6C154,263,150.5,266.5,146.2,266.5z M248.2,323.2c-28.3-16.2-58.7-24.4-94.2-25.4v-17.1
			c9.1-3.2,15.6-11.9,15.6-22.1V243c0-10.2-6.5-18.8-15.6-22.1v-16.8c36.7,1.1,66.1,9.7,94.2,27.5V323.2z M256,218.1
			c-14.4-9.1-29.4-16-45.4-20.9c8.8-5.7,19.1-8.9,29.8-8.9h31.2c10.6,0,21,3.1,29.8,8.9C285.4,202.1,270.4,209.1,256,218.1z
			 M358,297.8c-35.4,1-65.8,9.2-94.2,25.4v-91.5c28-17.8,57.5-26.5,94.2-27.5V221c-9.1,3.2-15.6,11.9-15.6,22.1v15.6
			c0,10.2,6.5,18.8,15.6,22.1V297.8z M373.6,258.7c0,4.3-3.5,7.8-7.8,7.8s-7.8-3.5-7.8-7.8V243c0-4.3,3.5-7.8,7.8-7.8
			s7.8,3.5,7.8,7.8V258.7z"/>
	</g>
</g>
</svg>
