<?xml version="1.0" encoding="utf-8"?>
<!-- Generator: Adobe Illustrator 20.1.0, SVG Export Plug-In . SVG Version: 6.00 Build 0)  -->
<svg version="1.1" id="Capa_1" xmlns="http://www.w3.org/2000/svg" xmlns:xlink="http://www.w3.org/1999/xlink" x="0px" y="0px"
	 viewBox="0 0 512 512" style="enable-background:new 0 0 512 512;" xml:space="preserve">
<style type="text/css">
	.st0{fill:none;stroke:#000000;stroke-width:16;stroke-miterlimit:10;}
</style>
<path d="M256,0C133.5,0,34.1,99.3,34.1,221.9c0,173.9,209,284.5,217.9,289.2c2.5,1.3,5.4,1.3,7.9,0c8.9-4.6,217.9-115.3,217.9-289.2
	C477.9,99.3,378.5,0,256,0z M256,493.7c-28.8-16.1-204.8-121-204.8-271.9C51.3,108.8,142.9,17.2,256,17.1
	c113.1,0.1,204.7,91.7,204.8,204.8C460.8,372.7,284.8,477.6,256,493.7z"/>
<circle class="st0" cx="256.5" cy="218.1" r="176"/>
<g>
	<g>
		<path d="M373.9,141.3h-24.7l-5.7-25.7c-2.4-11-12-18.6-23.2-18.6h-85.9c-11.2,0-20.8,7.7-23.2,18.6l-5.7,25.7h-5.9v-11
			c0-6.2-5-11.2-11.2-11.2h-36.2c-6.2,0-11.2,5-11.2,11.2v11h-0.8c-10.1,0-18.4,8.2-18.4,18.4v124.4c0,10.1,8.2,18.4,18.4,18.4h18.8
			h66.4c15,9.7,32.8,15.4,52,15.4s37-5.6,52-15.4h44.6c10.1,0,18.4-8.2,18.4-18.4V159.7C392.2,149.6,384,141.3,373.9,141.3z
			 M221.4,117.9c1.3-6.1,6.7-10.4,12.9-10.4h85.9c6.2,0,11.5,4.3,12.9,10.4l5.2,23.4h-9c-15-9.7-32.8-15.4-52-15.4
			c-19.2,0-37,5.6-52,15.4h-9L221.4,117.9z M151.5,130.4c0-0.4,0.3-0.6,0.6-0.6h36.2c0.4,0,0.6,0.3,0.6,0.6v11h-37.5V130.4z
			 M164.2,291.9v-57.4c0-2.9-2.4-5.3-5.3-5.3c-2.9,0-5.3,2.4-5.3,5.3v57.4h-13.5c-4.3,0-7.8-3.5-7.8-7.8V159.7
			c0-4.3,3.5-7.8,7.8-7.8h6.1h48.1h15.4h2.1c-18.7,17.5-30.4,42.4-30.4,70s11.7,52.5,30.4,70H164.2z M326.1,291.9
			c-6.3,4.4-13.2,8-20.6,10.6c-8.8,3.1-18.3,4.8-28.2,4.8s-19.4-1.7-28.2-4.8c-7.4-2.6-14.3-6.2-20.6-10.6
			c-22.1-15.4-36.6-41-36.6-70s14.5-54.5,36.6-70c6.3-4.4,13.2-8,20.6-10.6c8.8-3.1,18.3-4.8,28.2-4.8s19.4,1.7,28.2,4.8
			c7.4,2.6,14.3,6.2,20.6,10.6c22.1,15.4,36.6,41,36.6,70S348.1,276.4,326.1,291.9z M381.7,284.1c0,4.3-3.5,7.8-7.8,7.8h-31.1
			c18.7-17.5,30.4-42.4,30.4-70s-11.7-52.5-30.4-70h2.1h29c4.3,0,7.8,3.5,7.8,7.8L381.7,284.1L381.7,284.1z"/>
	</g>
</g>
<g>
	<g>
		<path d="M277.3,152.5c-38.2,0-69.4,31.1-69.4,69.4c0,38.2,31.1,69.4,69.4,69.4c5.6,0,11.1-0.7,16.5-2c2.8-0.7,4.6-3.5,3.9-6.4
			c-0.7-2.8-3.5-4.6-6.4-3.9c-4.5,1.1-9.3,1.7-14,1.7c-32.4,0-58.8-26.4-58.8-58.8s26.4-58.8,58.8-58.8s58.8,26.4,58.8,58.8
			c0,11.8-3.5,23.2-10.1,32.9c-1.6,2.4-1,5.7,1.4,7.3c2.4,1.6,5.7,1,7.3-1.4c7.8-11.5,11.9-24.9,11.9-38.9
			C346.6,183.6,315.5,152.5,277.3,152.5z"/>
	</g>
</g>
<g>
	<g>
		<path d="M158.9,170.2c-10.8,0-19.7,8.8-19.7,19.7s8.8,19.7,19.7,19.7c10.8,0,19.7-8.8,19.7-19.7
			C178.6,179,169.7,170.2,158.9,170.2z M158.9,198.9c-5,0-9.1-4.1-9.1-9.1s4.1-9.1,9.1-9.1s9.1,4.1,9.1,9.1S163.9,198.9,158.9,198.9
			z"/>
	</g>
</g>
<g>
	<g>
		<path d="M319.9,272.8c-0.1-0.3-0.2-0.7-0.3-1c-0.1-0.3-0.3-0.6-0.5-0.9c-0.2-0.3-0.4-0.6-0.7-0.8c-0.2-0.2-0.5-0.5-0.8-0.7
			c-0.3-0.2-0.6-0.4-0.9-0.5s-0.6-0.2-1-0.3c-0.7-0.1-1.4-0.1-2.1,0c-0.3,0.1-0.7,0.2-1,0.3c-0.3,0.1-0.6,0.3-0.9,0.5
			c-0.3,0.2-0.6,0.4-0.8,0.7c-0.2,0.2-0.5,0.5-0.7,0.8c-0.2,0.3-0.4,0.6-0.5,0.9c-0.1,0.3-0.2,0.7-0.3,1c-0.1,0.3-0.1,0.7-0.1,1
			s0,0.7,0.1,1c0.1,0.3,0.2,0.7,0.3,1c0.1,0.3,0.3,0.6,0.5,0.9c0.2,0.3,0.4,0.6,0.7,0.8c0.2,0.2,0.5,0.5,0.8,0.7
			c0.3,0.2,0.6,0.4,0.9,0.5s0.6,0.2,1,0.3c0.3,0.1,0.7,0.1,1,0.1c0.3,0,0.7,0,1-0.1c0.3-0.1,0.7-0.2,1-0.3c0.3-0.1,0.6-0.3,0.9-0.5
			c0.3-0.2,0.6-0.4,0.8-0.7c1-1,1.5-2.3,1.5-3.7C320,273.5,320,273.2,319.9,272.8z"/>
	</g>
</g>
</svg>
